<?xml version="1.0" encoding="UTF-8"?>
<svg version="1.1" xmlns="http://www.w3.org/2000/svg" width="4500" height="4500">
<path d="M0 0 C1.4987472 -0.00429476 1.4987472 -0.00429476 3.02777211 -0.00867629 C6.39378833 -0.0158627 9.75962338 -0.00874841 13.1256379 -0.00176666 C15.57010406 -0.00400004 18.01456955 -0.00711003 20.45903361 -0.01101846 C25.8062394 -0.01753484 31.15339216 -0.01779309 36.50059557 -0.01264547 C44.52884847 -0.00495854 52.5570676 -0.00884944 60.58532036 -0.01497553 C74.328982 -0.02512269 88.0726296 -0.02572364 101.81629358 -0.02124848 C115.8260943 -0.01672571 129.83588503 -0.01657913 143.84568565 -0.02171391 C145.1765985 -0.02219749 145.1765985 -0.02219749 146.53439848 -0.02269084 C151.06447767 -0.0243558 155.59455683 -0.02608954 160.12463599 -0.0278459 C193.24378988 -0.0405312 226.36293898 -0.04326893 259.4820949 -0.04101095 C293.06228408 -0.03874872 326.64246884 -0.04080471 360.22265734 -0.04815588 C362.36208162 -0.04861987 364.5015059 -0.04908381 366.64093018 -0.04954772 C375.26681572 -0.05142674 383.89270126 -0.05333933 392.51858678 -0.0552901 C416.83631915 -0.06078151 441.15405163 -0.0655401 465.47178425 -0.06979404 C467.14349153 -0.07008669 467.14349153 -0.07008669 468.84897067 -0.07038525 C532.26909391 -0.08140226 595.68921739 -0.08200463 659.10934141 -0.08282697 C668.80571967 -0.08295346 678.50209792 -0.08308651 688.19847617 -0.08322807 C690.62872311 -0.08326346 693.05897005 -0.08329821 695.48921699 -0.08333232 C750.00241924 -0.08410748 804.51562098 -0.08846316 859.02882297 -0.09359283 C871.19058577 -0.09473594 883.35234857 -0.09584388 895.51411137 -0.09695409 C896.7213091 -0.09706434 897.92850683 -0.09717458 899.17228631 -0.09728816 C906.50012073 -0.09795716 913.82795516 -0.0986247 921.15578958 -0.09929129 C924.82658317 -0.09962545 928.49737676 -0.09996047 932.16817035 -0.10029557 C989.24495308 -0.10549958 1046.32173585 -0.10996009 1103.3985187 -0.11365996 C1105.26403563 -0.11378107 1105.26403563 -0.11378107 1107.16723978 -0.11390462 C1186.43193492 -0.11903172 1265.69662977 -0.12082953 1344.96132507 -0.12030396 C1348.85969595 -0.12027845 1352.75806684 -0.12025452 1356.65643773 -0.12023113 C1384.04485377 -0.12006645 1411.4332698 -0.11986103 1438.82168584 -0.11964538 C1446.67473884 -0.11958384 1454.52779184 -0.11952371 1462.38084484 -0.11946375 C1468.93132088 -0.11941356 1475.48179691 -0.11936198 1482.03227294 -0.11930752 C1605.76544903 -0.11828458 1729.49862251 -0.12112225 1853.23179735 -0.14000235 C1854.53458463 -0.14020106 1855.8373719 -0.14039978 1857.17963758 -0.14060452 C1897.88484975 -0.14682722 1938.59006184 -0.1535602 1979.29527391 -0.16038809 C2021.06108072 -0.16739077 2062.82688754 -0.17433162 2104.59269442 -0.18091688 C2105.87864214 -0.18111994 2107.16458986 -0.18132299 2108.4895057 -0.18153219 C2189.00678405 -0.19422766 2269.52406165 -0.20207368 2350.04134096 -0.20463286 C2351.28463662 -0.20467291 2352.52793228 -0.20471297 2353.80890356 -0.20475424 C2408.40766746 -0.20650477 2463.00643133 -0.20714447 2517.60519526 -0.20657246 C2539.56942216 -0.20634389 2561.53364906 -0.20623176 2583.49787597 -0.20616582 C2587.13972609 -0.20615302 2590.78157621 -0.20613487 2594.42342633 -0.20611552 C2650.15129762 -0.20584243 2705.87916653 -0.20854078 2761.60703672 -0.22020588 C2762.80947254 -0.22045722 2764.01190836 -0.22070857 2765.25078163 -0.22096753 C2784.5944217 -0.22502576 2803.93806172 -0.22931375 2823.28170174 -0.23362114 C2878.1764535 -0.24583496 2933.07120208 -0.25592931 2987.96595539 -0.2516788 C2989.07915133 -0.25159338 2990.19234726 -0.25150795 2991.3392764 -0.25141993 C3015.62204221 -0.24951349 3039.90480775 -0.24648215 3064.18757328 -0.2423465 C3073.87130571 -0.24071379 3083.55503816 -0.23922656 3093.23877062 -0.23778448 C3094.29511952 -0.23762318 3095.35146842 -0.23746188 3096.43982789 -0.23729568 C3129.97729986 -0.23224333 3163.51475409 -0.23949482 3197.05222297 -0.25382012 C3230.06071687 -0.26786758 3263.06918604 -0.26982673 3296.07767997 -0.25404625 C3300.59398722 -0.25188883 3305.11029451 -0.24987112 3309.62660186 -0.24793714 C3310.51079226 -0.2475531 3311.39498266 -0.24716907 3312.3059667 -0.2467734 C3326.27149778 -0.24107265 3340.23698782 -0.24875051 3354.20251233 -0.26209834 C3367.85199468 -0.27487229 3381.50141382 -0.27354772 3395.15089273 -0.25691059 C3403.12097966 -0.24762201 3411.09088274 -0.24925075 3419.06095616 -0.26709867 C3424.95552121 -0.27908653 3430.84993461 -0.27033057 3436.74449159 -0.25334459 C3439.11445101 -0.24975097 3441.48443239 -0.2528997 3443.85437075 -0.26351684 C3447.06540582 -0.27693599 3450.27546141 -0.26571731 3453.48645687 -0.24839699 C3454.39897485 -0.25814098 3455.31149283 -0.26788497 3456.25166287 -0.27792423 C3465.67905397 -0.17251342 3474.36359202 2.60768111 3481.27085985 9.188733 C3487.42053851 16.55161358 3489.11604976 24.25557316 3489.12494387 33.63209524 C3489.1269965 34.36931105 3489.12904913 35.10652686 3489.13116397 35.86608254 C3489.13683208 38.34390397 3489.13537695 40.82166978 3489.133958 43.29949655 C3489.13654174 45.09097371 3489.13955492 46.88245029 3489.1429614 48.67392608 C3489.15103356 53.60301069 3489.15282109 58.53208074 3489.15355887 63.46117117 C3489.15540904 68.77489327 3489.16295619 74.0886078 3489.16969408 79.40232553 C3489.18327937 91.02423004 3489.1893024 102.6461311 3489.19370474 114.26804223 C3489.19646678 121.52383122 3489.20070406 128.77961888 3489.20520891 136.03540697 C3489.21740174 156.12181696 3489.22770109 176.20822588 3489.231084 196.29463949 C3489.23130357 197.58035916 3489.23152314 198.86607883 3489.23174936 200.1907597 C3489.23207677 202.12397062 3489.23207677 202.12397062 3489.2324108 204.09623631 C3489.23285427 206.70787909 3489.23330083 209.31952187 3489.23375048 211.93116464 C3489.23408262 213.87436487 3489.23408262 213.87436487 3489.23442148 215.85682166 C3489.23836981 236.84980883 3489.25582487 257.8427613 3489.27911 278.83573507 C3489.30281969 300.38527951 3489.31528568 321.93480654 3489.31645192 343.48436423 C3489.31736889 355.58510615 3489.32312664 367.68580284 3489.34127153 379.78653231 C3489.35666732 390.09025296 3489.36179604 400.39391443 3489.35353343 410.6976444 C3489.34962513 415.95452932 3489.35056544 421.21129502 3489.36459078 426.4681653 C3489.3773186 431.28274244 3489.37614193 436.09711063 3489.36400007 440.91168743 C3489.36204114 442.65127569 3489.36513052 444.3908787 3489.37384443 446.13044624 C3489.43189705 458.50533165 3489.20399603 469.94085633 3479.9935161 479.251233 C3471.7836047 485.98066858 3464.3482611 487.55556886 3453.9870322 487.50246601 C3452.48828501 487.50676077 3452.48828501 487.50676077 3450.95926009 487.51114229 C3447.59324387 487.51832871 3444.22740882 487.51121442 3440.8613943 487.50423267 C3438.41692814 487.50646605 3435.97246265 487.50957604 3433.5279986 487.51348447 C3428.1807928 487.52000085 3422.83364005 487.52025909 3417.48643664 487.51511148 C3409.45818374 487.50742455 3401.4299646 487.51131545 3393.40171185 487.51744154 C3379.65805021 487.52758869 3365.91440261 487.52818965 3352.17073862 487.52371449 C3338.16093791 487.51919172 3324.15114717 487.51904514 3310.14134656 487.52417991 C3308.81043371 487.52466349 3308.81043371 487.52466349 3307.45263372 487.52515684 C3302.92255453 487.52682181 3298.39247537 487.52855555 3293.86239622 487.53031191 C3260.74324233 487.54299721 3227.62409323 487.54573494 3194.50493731 487.54347696 C3160.92474813 487.54121472 3127.34456336 487.54327072 3093.76437487 487.55062189 C3091.62495059 487.55108587 3089.4855263 487.55154982 3087.34610202 487.55201373 C3078.72021648 487.55389275 3070.09433095 487.55580534 3061.46844542 487.55775611 C3037.15071306 487.56324752 3012.83298057 487.56800611 2988.51524796 487.57226004 C2987.40077644 487.57245514 2986.28630492 487.57265024 2985.13806153 487.57285126 C2921.7179383 487.58386827 2858.29781481 487.58447064 2794.87769079 487.58529298 C2785.18131254 487.58541947 2775.48493429 487.58555251 2765.78855603 487.58569408 C2763.35830909 487.58572947 2760.92806215 487.58576422 2758.49781521 487.58579833 C2703.98461296 487.58657349 2649.47141123 487.59092917 2594.95820923 487.59605883 C2582.79644644 487.59720195 2570.63468364 487.59830989 2558.47292084 487.5994201 C2557.2657231 487.59953034 2556.05852537 487.59964059 2554.8147459 487.59975417 C2547.48691147 487.60042317 2540.15907705 487.6010907 2532.83124262 487.6017573 C2529.16044903 487.60209146 2525.48965544 487.60242647 2521.81886186 487.60276157 C2464.74207913 487.60796559 2407.66529635 487.6124261 2350.58851351 487.61612596 C2349.34483555 487.6162067 2348.10115759 487.61628745 2346.81979243 487.61637063 C2267.55509729 487.62149772 2188.29040244 487.62329554 2109.02570714 487.62276997 C2105.12733625 487.62274446 2101.22896536 487.62272053 2097.33059448 487.62269714 C2069.94217844 487.62253246 2042.5537624 487.62232704 2015.16534636 487.62211138 C2007.31229336 487.62204985 1999.45924036 487.62198972 1991.60618736 487.62192976 C1985.05571133 487.62187957 1978.50523529 487.62182799 1971.95475926 487.62177353 C1848.22158317 487.62075059 1724.4884097 487.62358826 1600.75523485 487.64246836 C1599.45244758 487.64266707 1598.1496603 487.64286579 1596.80739463 487.64307053 C1556.10218245 487.64929323 1515.39697037 487.65602621 1474.69175829 487.6628541 C1432.92595148 487.66985678 1391.16014466 487.67679763 1349.39433779 487.68338289 C1348.10839006 487.68358594 1346.82244234 487.683789 1345.4975265 487.6839982 C1264.98024816 487.69669367 1184.46297055 487.70453969 1103.94569124 487.70709886 C1102.70239559 487.70713892 1101.45909993 487.70717897 1100.17812865 487.70722024 C1045.57936474 487.70897077 990.98060088 487.70961048 936.38183695 487.70903847 C914.41761004 487.7088099 892.45338314 487.70869777 870.48915624 487.70863183 C866.84730612 487.70861903 863.205456 487.70860087 859.56360588 487.70858153 C803.83573458 487.70830844 748.10786568 487.71100679 692.37999548 487.72267189 C691.17755966 487.72292323 689.97512384 487.72317458 688.73625058 487.72343353 C669.3926105 487.72749177 650.04897048 487.73177976 630.70533047 487.73608715 C575.8105787 487.74830097 520.91583013 487.75839532 466.02107681 487.75414481 C464.90788088 487.75405938 463.79468495 487.75397396 462.6477558 487.75388594 C438.36498999 487.75197949 414.08222446 487.74894816 389.79945893 487.74481251 C380.1157265 487.7431798 370.43199405 487.74169257 360.74826159 487.74025049 C359.16373823 487.74000854 359.16373823 487.74000854 357.54720431 487.73976169 C324.00973234 487.73470933 290.47227811 487.74196083 256.93480924 487.75628613 C223.92631533 487.77033359 190.91784616 487.77229274 157.90935223 487.75651226 C153.39304499 487.75435484 148.87673769 487.75233713 144.36043034 487.75040314 C143.47623995 487.75001911 142.59204955 487.74963508 141.6810655 487.74923941 C127.71553443 487.74353865 113.75004439 487.75121651 99.78451987 487.76456435 C86.13503752 487.7773383 72.48561838 487.77601373 58.83613947 487.7593766 C50.86605254 487.75008802 42.89614947 487.75171676 34.92607605 487.76956467 C29.03151099 487.78155254 23.13709759 487.77279658 17.24254061 487.7558106 C14.87258119 487.75221697 12.50259981 487.75536571 10.13266145 487.76598285 C6.92162639 487.779402 3.71157079 487.76818332 0.50057533 487.750863 C-0.41194264 487.76060699 -1.32446062 487.77035098 -2.26463066 487.78039024 C-11.69202176 487.67497943 -20.37655982 484.8947849 -27.28382765 478.313733 C-33.43350631 470.95085243 -35.12901756 463.24689285 -35.13791166 453.87037077 C-35.1399643 453.13315496 -35.14201693 452.39593915 -35.14413176 451.63638347 C-35.14979988 449.15856204 -35.14834475 446.68079623 -35.14692579 444.20296945 C-35.14950953 442.4114923 -35.15252272 440.62001571 -35.15592919 438.82853993 C-35.16400136 433.89945532 -35.16578889 428.97038527 -35.16652666 424.04129484 C-35.16837683 418.72757274 -35.17592398 413.4138582 -35.18266188 408.10014047 C-35.19624717 396.47823597 -35.2022702 384.85633491 -35.20667253 373.23442378 C-35.20943457 365.97863479 -35.21367185 358.72284713 -35.21817671 351.46705904 C-35.23036953 331.38064905 -35.24066888 311.29424013 -35.2440518 291.20782652 C-35.24427137 289.92210685 -35.24449093 288.63638718 -35.24471715 287.31170631 C-35.24493543 286.02289903 -35.24515371 284.73409174 -35.2453786 283.4062297 C-35.24582207 280.79458692 -35.24626863 278.18294414 -35.24671827 275.57130136 C-35.2469397 274.27583455 -35.24716113 272.98036774 -35.24738927 271.64564435 C-35.25133761 250.65265718 -35.26879266 229.65970471 -35.29207779 208.66673094 C-35.31578748 187.1171865 -35.32825347 165.56765947 -35.32941972 144.01810177 C-35.33033668 131.91735986 -35.33609444 119.81666317 -35.35423933 107.7159337 C-35.36963511 97.41221305 -35.37476384 87.10855158 -35.36650123 76.80482161 C-35.36259292 71.54793668 -35.36353323 66.29117099 -35.37755857 61.03430071 C-35.39028639 56.21972357 -35.38910973 51.40535538 -35.37696786 46.59077857 C-35.37500894 44.85119031 -35.37809831 43.11158731 -35.38681222 41.37201977 C-35.44486484 28.99713436 -35.21696382 17.56160967 -26.0064839 8.251233 C-17.7965725 1.52179743 -10.36122889 -0.05310286 0 0 Z " fill="#671214" transform="translate(523.0064838975668,2417.7487669959664)"/>
<path d="M0 0 C0.79796997 0.04290161 1.59593994 0.08580322 2.41809082 0.13000488 C77.47595247 4.28811901 150.4285463 23.55848407 210.5625 70.25 C211.58601563 71.0440625 212.60953125 71.838125 213.6640625 72.65625 C229.87216617 85.82800707 245.35351343 101.30105394 257.5625 118.25 C258.44857574 119.41133889 259.33801558 120.57011727 260.23046875 121.7265625 C267.8671826 131.71885274 274.32976635 142.33831447 280.5625 153.25 C281.17738281 154.32072754 281.17738281 154.32072754 281.8046875 155.41308594 C311.51286695 207.67655263 322.94457546 269.67631127 322.625 329.25 C322.61996627 330.91145696 322.61540673 332.57291542 322.61132812 334.234375 C322.60049087 338.23962171 322.58333374 342.24479334 322.5625 346.25 C323.42551727 346.07238884 323.42551727 346.07238884 324.30596924 345.89118958 C342.09162765 342.24671006 359.92870604 338.94144689 377.79931641 335.74584961 C381.61374474 335.06357308 385.42698921 334.37489572 389.24000168 333.68475628 C392.21458968 333.1473143 395.1898777 332.61383261 398.16538239 332.08149147 C399.57379112 331.82890029 400.98195443 331.57493633 402.38985443 331.31952477 C404.33956177 330.96628602 406.29036579 330.61911668 408.24121094 330.2722168 C409.34495056 330.07411911 410.44869019 329.87602142 411.58587646 329.67192078 C414.5625 329.25 414.5625 329.25 419.5625 329.25 C419.5625 376.77 419.5625 424.29 419.5625 473.25 C372.17009494 484.18670886 372.17009494 484.18670886 356.8125 484.6875 C347.42557386 485.14558114 338.69584408 486.24623436 331.21875 492.375 C325.97761758 498.30835746 324.44631869 506.85774935 324.4238348 514.55045033 C324.41562313 516.1329112 324.41562313 516.1329112 324.40724558 517.74734098 C324.40626747 518.90006126 324.40528936 520.05278154 324.40428162 521.24043274 C324.39687465 523.08443949 324.39687465 523.08443949 324.38931805 524.9656989 C324.37661437 528.37488314 324.3683242 531.78402659 324.36189139 535.19322503 C324.35387896 538.87075663 324.34018408 542.54826758 324.32717896 546.2257843 C324.30542818 552.59632533 324.28727857 558.96686845 324.27157402 565.33742714 C324.24886266 574.54818822 324.22072158 583.7589264 324.19125474 592.96966805 C324.14359437 607.91344372 324.10032596 622.85722876 324.05981445 637.80102539 C324.02045162 652.31763437 323.97901223 666.83423498 323.93481445 681.35083008 C323.93206495 682.254741 323.92931544 683.15865192 323.92648262 684.08995408 C323.9049635 691.15911878 323.88332393 698.22828311 323.86164629 705.29744732 C323.75542016 739.94828136 323.65970027 774.5991372 323.5625 809.25 C275.3825 809.25 227.2025 809.25 177.5625 809.25 C177.2325 784.17 176.9025 759.09 176.5625 733.25 C172.6025 737.21 168.6425 741.17 164.5625 745.25 C161.91700992 747.6314256 159.28399101 749.96449705 156.5625 752.25 C155.62954102 753.05074951 155.62954102 753.05074951 154.67773438 753.86767578 C84.52185992 813.90146927 -3.0207322 837.62294992 -94.21876526 830.77740479 C-149.15744881 826.40710635 -205.942251 809.34502532 -252.4375 779.25 C-253.19144043 778.76208984 -253.94538086 778.27417969 -254.72216797 777.77148438 C-270.76434775 767.28349711 -285.60310638 755.51658045 -299.4375 742.25 C-299.99679199 741.71793945 -300.55608398 741.18587891 -301.13232422 740.63769531 C-309.73572765 732.41165496 -317.37228967 723.8247259 -324.4375 714.25 C-324.86514648 713.67781738 -325.29279297 713.10563477 -325.73339844 712.51611328 C-332.24653775 703.77687071 -338.052504 694.7229454 -343.4375 685.25 C-343.8072998 684.60756348 -344.17709961 683.96512695 -344.55810547 683.30322266 C-356.99426942 661.52240102 -364.94311697 637.57605922 -370.1875 613.125 C-370.48575684 611.75033569 -370.48575684 611.75033569 -370.79003906 610.34790039 C-373.84084926 595.38035344 -374.82299574 580.36931059 -374.75 565.125 C-374.74817719 564.32495544 -374.74635437 563.52491089 -374.74447632 562.70062256 C-374.69242774 549.04016045 -373.87274512 535.71575501 -371.4375 522.25 C-371.27121094 521.31124023 -371.10492187 520.37248047 -370.93359375 519.40527344 C-366.97990013 497.79906995 -360.08263827 476.97754523 -350.4375 457.25 C-350.03692383 456.42435547 -349.63634766 455.59871094 -349.22363281 454.74804688 C-340.63501962 437.229638 -330.28871139 420.96475805 -317.4375 406.25 C-316.48810547 405.13625 -316.48810547 405.13625 -315.51953125 404 C-302.86192256 389.50618115 -289.1788266 376.33700336 -273.4375 365.25 C-272.80779297 364.80221191 -272.17808594 364.35442383 -271.52929688 363.89306641 C-222.51918199 329.29996481 -163.21803749 317.83196115 -104.4375 313.25 C-103.57511719 313.17942383 -102.71273438 313.10884766 -101.82421875 313.03613281 C-72.20952765 310.71557866 -42.01116872 311.7951148 -12.4375 314.25 C-11.37934082 314.33767639 -11.37934082 314.33767639 -10.29980469 314.42712402 C39.55313478 318.63537863 88.69047799 328.46035987 137.1875 340.5 C138.00590363 340.70260437 138.82430725 340.90520874 139.66751099 341.11395264 C150.42628001 343.79111914 161.01758906 346.82583559 171.5625 350.25 C172.26165087 348.18750494 172.95675336 346.12358694 173.63671875 344.0546875 C174.2694002 342.13795634 174.91863275 340.22663004 175.58203125 338.3203125 C186.85461 304.46035684 178.99384286 265.91840091 164.5625 234.25 C164.22959961 233.5192627 163.89669922 232.78852539 163.55371094 232.03564453 C145.94119512 194.01292587 113.67670906 166.99457474 74.83105469 152.21044922 C48.6286608 142.65464519 21.45082912 137.19536709 -6.4375 136.25 C-7.571875 136.20875 -8.70625 136.1675 -9.875 136.125 C-48.99375599 135.42645079 -87.89147842 143.85776861 -122.4375 162.25 C-123.34628906 162.72542236 -123.34628906 162.72542236 -124.2734375 163.21044922 C-133.87118591 168.26341229 -142.14383638 174.31759857 -150.4375 181.25 C-151.33339844 181.97960938 -152.22929688 182.70921875 -153.15234375 183.4609375 C-171.72244368 199.24405561 -182.51605582 221.9508681 -190.7265625 244.4453125 C-191.11585938 245.51072266 -191.50515625 246.57613281 -191.90625 247.67382812 C-192.65738454 249.75340501 -193.39516228 251.83787249 -194.1171875 253.92773438 C-197.24815969 262.6722593 -201.16025901 269.65153278 -209.4375 274.25 C-212.49070382 275.26773461 -214.53850713 275.37333558 -217.73356628 275.37025452 C-218.8315303 275.37162918 -219.92949432 275.37300385 -221.06072998 275.37442017 C-222.26554016 275.37082489 -223.47035034 275.36722961 -224.71166992 275.36352539 C-225.98007217 275.36367142 -227.24847443 275.36381744 -228.55531311 275.3639679 C-232.03437748 275.36425511 -235.51340746 275.35837057 -238.99246383 275.35139394 C-242.62797481 275.34514785 -246.26348656 275.3445556 -249.89900208 275.34336853 C-256.78377382 275.34025893 -263.66852972 275.33205052 -270.55329448 275.32201904 C-278.39118129 275.31084641 -286.22906886 275.30534455 -294.06696165 275.30032361 C-310.19048372 275.28986761 -326.31398984 275.27227533 -342.4375 275.25 C-342.44486334 273.00047285 -342.4501275 270.75093876 -342.45449829 268.50140381 C-342.4576536 267.24869564 -342.46080891 265.99598747 -342.46405983 264.70531845 C-342.41684714 258.56315307 -341.62349805 252.58676607 -340.8125 246.5 C-340.72480347 245.83491425 -340.63710693 245.16982849 -340.54675293 244.48458862 C-336.73781707 215.94596296 -329.11763178 188.15632544 -316.4375 162.25 C-316.06399414 161.48381348 -315.69048828 160.71762695 -315.30566406 159.92822266 C-305.02564986 139.09000902 -291.94453895 119.97669762 -276.03515625 103.03515625 C-273.71457802 100.54707763 -271.47491665 98.01074019 -269.25 95.4375 C-266.21613246 92.00978352 -263.0212601 88.97960621 -259.5234375 86.03125 C-258.12386174 84.83610666 -256.75365555 83.60576044 -255.4140625 82.34375 C-237.94841361 65.91991175 -217.33344746 52.7008156 -196.33007812 41.28662109 C-194.54796302 40.31050387 -192.78119691 39.30651228 -191.015625 38.30078125 C-133.39123358 6.16410142 -65.12189959 -3.50485414 0 0 Z M-201.19921875 505.12890625 C-219.08032068 525.69354262 -227.15287845 551.87617959 -225.62207031 578.95166016 C-224.78600219 589.36269897 -221.98098348 598.86531189 -217.4375 608.25 C-216.77427734 609.63638672 -216.77427734 609.63638672 -216.09765625 611.05078125 C-206.92412207 629.01667782 -191.01640851 643.19739432 -174.4375 654.25 C-173.76122559 654.70084961 -173.08495117 655.15169922 -172.38818359 655.61621094 C-142.01886489 675.5604524 -107.56681622 687.56857678 -71.4375 691.25 C-70.47328125 691.36085938 -69.5090625 691.47171875 -68.515625 691.5859375 C-1.90306902 698.10621414 67.17213716 676.49857093 119.1875 634.8125 C124.64889353 630.25600012 129.9264754 625.51138019 135.09814453 620.63085938 C136.49455356 619.3140722 137.90132594 618.00830084 139.30859375 616.703125 C151.82854631 604.71013706 161.80550999 590.7235158 169.5625 575.25 C170.12582031 574.13625 170.68914062 573.0225 171.26953125 571.875 C181.3331568 550.27005198 182.86930261 527.65783496 179.8203125 504.3449707 C179.5625 502.25 179.5625 502.25 179.4453125 499.33984375 C178.67175903 496.91523553 178.67175903 496.91523553 175.609375 495.58203125 C174.18679779 495.04884619 172.752984 494.54521946 171.3125 494.0625 C170.49386475 493.77624756 169.67522949 493.48999512 168.83178711 493.19506836 C142.04310704 484.16589572 114.21447557 477.96780446 86.5625 472.25 C85.47793518 472.02407166 85.47793518 472.02407166 84.37145996 471.7935791 C-0.11167392 454.22430837 -112.7663214 435.6766245 -201.19921875 505.12890625 Z " fill="#671214" transform="translate(1147.4375,1448.75)"/>
<path d="M0 0 C2.43381469 0.03424589 4.8676477 0.06683885 7.30148697 0.09928513 C11.13466669 0.15141481 14.96771159 0.20946357 18.80072212 0.27280998 C20.19418405 0.29566117 21.58766389 0.3174516 22.98116112 0.33803749 C43.19605508 0.64581111 52.70585869 2.48319214 67.07574844 17.23359299 C72.85425817 23.4377923 78.04583959 30.02576046 83.14606094 36.78730392 C85.83816633 40.33178609 88.58148073 43.83659773 91.31793594 47.34687424 C92.52112066 48.89240067 93.72424508 50.43797404 94.92731094 51.98359299 C95.83126602 53.14447433 95.83126602 53.14447433 96.75348282 54.32880783 C99.69306932 58.1045469 102.6304131 61.88202959 105.56793594 65.65937424 C106.73459134 67.15938301 107.90125802 68.659383 109.06793594 70.15937424 C116.06793594 79.15937424 123.06793594 88.15937424 130.06793594 97.15937424 C130.64575821 97.90227707 131.22358047 98.6451799 131.81891251 99.41059494 C132.98236906 100.90649086 134.14578072 102.40242169 135.30914688 103.89838791 C138.27455592 107.711472 141.24080856 111.52389488 144.20856094 115.33515549 C151.81180569 125.10125108 159.37753968 134.89455778 166.91168594 144.71406174 C171.71192408 150.96372242 176.53688087 157.19321345 181.38043594 163.40937424 C186.51483979 169.99973045 191.60698658 176.62059688 196.67267227 183.26386642 C200.60810542 188.41903978 204.58006377 193.54468609 208.56793594 198.65937424 C213.6410977 205.16601217 218.67060756 211.70399711 223.67340469 218.26484299 C228.18627389 224.17637382 232.75047449 230.04688266 237.3242836 235.91132736 C241.39550281 241.13683426 245.42810326 246.39045574 249.44293594 251.65937424 C254.06844237 257.72865623 258.75279224 263.73863863 263.56793594 269.65937424 C267.16254678 266.14865916 270.52003134 262.50581952 273.75543594 258.65937424 C274.23174454 258.0946843 274.70805313 257.52999435 275.19879532 256.9481926 C279.28890765 252.06240444 283.18487515 247.04331008 287.04059219 241.97187424 C289.6600179 238.52703793 292.32775918 235.12153619 295.00543594 231.72187424 C295.46522842 231.13768723 295.9250209 230.55350021 296.39874649 229.95161057 C297.78800143 228.18715716 299.17792884 226.42323513 300.56793594 224.65937424 C311.44461793 210.85005789 322.25263867 196.98828261 332.95856094 183.04609299 C339.06816823 175.10408008 345.24346201 167.21249669 351.39996719 159.30683517 C358.81833702 149.77971033 366.21769934 140.23918262 373.56793594 130.65937424 C379.14629267 123.38891597 384.74808752 116.13808143 390.38043594 108.90937424 C396.62481993 100.89212341 402.81020264 92.83132811 408.97223282 84.75068283 C411.07473052 81.99517559 413.18129858 79.24279426 415.28790665 76.49042892 C418.0496931 72.88143495 420.80887005 69.27044826 423.56793594 65.65937424 C424.19071426 64.8445256 424.81349258 64.02967697 425.45514297 63.19013596 C427.4520702 60.57647404 429.44786355 57.96195226 431.44293594 55.34687424 C432.11179825 54.4701506 432.78066055 53.59342697 433.46979141 52.69013596 C437.53310455 47.35538958 441.56469496 41.99828039 445.57355118 36.622509 C448.55791768 32.62437059 451.55768883 28.63805559 454.56793594 24.65937424 C455.24227676 23.76557053 455.24227676 23.76557053 455.93024063 22.85371017 C464.88306112 11.08571708 474.83195987 2.86451827 489.53877258 0.05715942 C495.73278593 -0.75622911 501.97339158 -0.54821551 508.2070961 -0.47587967 C509.76519587 -0.46543527 511.32330199 -0.45590349 512.88141251 -0.4472084 C517.08327462 -0.42120298 521.28493347 -0.38253347 525.48667192 -0.34148455 C529.88816728 -0.30067285 534.28974052 -0.27165421 538.69131851 -0.24135208 C547.01381727 -0.18228153 555.33619315 -0.1126985 563.65857637 -0.03928125 C573.13861649 0.0438323 582.61873412 0.11513936 592.09887624 0.18548465 C611.58867746 0.33036735 631.07833312 0.48997946 650.56793594 0.65937424 C648.15203005 4.95438773 645.84339457 8.77256087 642.63043594 12.53437424 C638.66974815 17.27677672 634.8720367 22.11737289 631.13043594 27.03437424 C630.57388321 27.76543381 630.01733047 28.49649338 629.44391251 29.24970627 C628.33841706 30.70272612 627.2332675 32.1560092 626.12848282 33.60956955 C623.88934257 36.5507181 621.63629037 39.48103679 619.38043594 42.40937424 C618.58250626 43.44578049 617.78457657 44.48218674 616.96246719 45.54999924 C616.17227188 46.57609299 615.38207657 47.60218674 614.56793594 48.65937424 C612.90098302 50.82582075 611.23446181 52.99259921 609.56793594 55.15937424 C608.73461047 56.24271362 607.90127715 57.32604696 607.06793594 58.40937424 C606.44918594 59.21374924 606.44918594 59.21374924 605.81793594 60.03437424 C582.06793595 90.90937423 582.06793595 90.90937423 580.81866837 92.53339767 C579.98286218 93.61996203 579.14708759 94.70655069 578.31134415 95.7931633 C576.26609958 98.45225971 574.22023603 101.11087363 572.17340469 103.76874924 C567.46033595 109.8904088 562.75918997 116.02097835 558.06793594 122.15937424 C552.58231153 129.33718516 547.07996844 136.5018247 541.56793594 143.65937424 C539.90098302 145.82582075 538.23446181 147.99259921 536.56793594 150.15937424 C535.73461047 151.24271362 534.90127715 152.32604696 534.06793594 153.40937424 C533.44918594 154.21374924 533.44918594 154.21374924 532.81793594 155.03437424 C419.06793595 302.90937423 419.06793595 302.90937423 417.81866837 304.53339767 C416.98286218 305.61996203 416.14708759 306.70655069 415.31134415 307.7931633 C413.26609958 310.45225971 411.22023603 313.11087363 409.17340469 315.76874924 C404.46033595 321.8904088 399.75918997 328.02097835 395.06793594 334.15937424 C389.58231153 341.33718516 384.07996844 348.5018247 378.56793594 355.65937424 C376.48971545 358.36032246 374.4119099 361.06158985 372.33478165 363.76337814 C370.15504638 366.59819686 367.97271753 369.43096966 365.78668594 372.26093674 C365.33164688 372.85068283 364.87660782 373.44042892 364.40777969 374.04804611 C363.53618049 375.17756753 362.66382473 376.3065057 361.79059219 377.43476486 C358.00683925 381.59872796 358.00683925 381.59872796 356.7942543 386.63618088 C357.6103936 388.77040187 358.53858498 390.23585407 359.94684219 392.03046799 C360.44740128 392.67596603 360.94796036 393.32146408 361.4636879 393.98652267 C362.01371475 394.68293869 362.56374161 395.37935471 363.13043594 396.09687424 C364.32357473 397.63169596 365.51626301 399.16686798 366.70856094 400.70234299 C367.33955704 401.51106857 367.97055313 402.31979416 368.62067032 403.15302658 C371.9055515 407.38103438 375.14066434 411.64676783 378.38043594 415.90937424 C379.74093933 417.69596485 381.101618 419.48242201 382.46246719 421.26874924 C383.14131973 422.16013596 383.82017227 423.05152267 384.5195961 423.96992111 C387.86841084 428.36688692 391.21821621 432.76309786 394.56793594 437.15937424 C395.90127418 438.9093705 397.23460751 440.6593705 398.56793594 442.40937424 C399.22793594 443.27562424 399.88793594 444.14187424 400.56793594 445.03437424 C439.90126928 496.65937424 479.23460261 548.28437424 518.56793594 599.90937424 C519.22801651 600.7757048 519.88809708 601.64203537 520.56818008 602.53461838 C521.90079771 604.28372985 523.23331732 606.03291599 524.56573868 607.78217697 C527.90922066 612.17139064 531.25442332 616.55927246 534.60309219 620.94453049 C541.1717271 629.55025355 547.71325485 638.17392794 554.19293594 646.84687424 C559.54664884 654.01109256 564.9913141 661.09656278 570.50104141 668.14130783 C574.84470341 673.70381051 579.0983089 679.32816648 583.31964493 684.98383713 C586.67942941 689.48311916 590.07985942 693.94835918 593.5117836 698.39301682 C597.42629235 703.46599412 601.31100716 708.56143637 605.19293594 713.65937424 C605.8758168 714.55615891 606.55869766 715.45294357 607.26227188 716.37690353 C608.66534229 718.21970078 610.06833637 720.06255614 611.47125626 721.90546799 C614.17379866 725.45515107 616.8775739 729.00389367 619.58160782 732.55244064 C620.90866621 734.29412323 622.23548815 736.03598601 623.56207657 737.77802658 C626.91618065 742.18213245 630.27379101 746.58348385 633.63824844 750.97968674 C640.33170105 759.73111907 646.99374777 768.5053756 653.56793594 777.34687424 C654.17395645 778.15527756 654.77997696 778.96368088 655.40436172 779.79658127 C655.95334122 780.53892014 656.50232071 781.281259 657.06793594 782.04609299 C657.55262344 782.69795578 658.03731094 783.34981857 658.53668594 784.02143478 C659.56793594 785.65937424 659.56793594 785.65937424 659.56793594 787.65937424 C643.31836088 787.68298466 627.06879157 787.70048891 610.81920338 787.71118641 C603.270191 787.71629072 595.72118942 787.72321792 588.17218399 787.73481369 C581.5741584 787.74494365 574.97614064 787.75126997 568.37810749 787.75346273 C564.90116237 787.75473962 561.42423962 787.75762401 557.94730186 787.76510429 C543.57902866 787.79247172 529.21148775 787.72481554 514.84672534 787.38930023 C513.41431823 787.3574332 511.98180242 787.33007024 510.54921639 787.30764401 C495.91992861 787.0670012 487.40235354 784.41107551 476.97809219 774.09687424 C470.61971016 767.38271473 465.08693189 760.18571015 459.61090469 752.74531174 C456.65285297 748.73971581 453.57065018 744.84576384 450.44293594 740.97187424 C445.97214241 735.42737205 441.59131271 729.82819307 437.26324844 724.17109299 C434.05540112 719.98192164 430.81047174 715.82171369 427.56793594 711.65937424 C422.75428452 705.47801822 417.96368632 699.28015433 413.19293594 693.06562424 C410.00165603 688.91696035 406.78369458 684.78907176 403.56793594 680.65937424 C397.87416388 673.3465599 392.2106154 666.01167346 386.56793594 658.65937424 C384.90184342 656.49226577 383.23491496 654.32580084 381.56793594 652.15937424 C379.11321479 648.96918818 376.65929177 645.77840906 374.20856094 642.58515549 C369.41418499 636.34149922 364.59382506 630.11899357 359.75543594 623.90937424 C353.47098654 615.84182343 347.25147656 607.72620145 341.04791641 599.59638596 C337.23540055 594.60653099 333.39941414 589.63467056 329.56793594 584.65937424 C328.32027198 583.03785439 327.07284842 581.4161499 325.8255043 579.794384 C324.98656878 578.70365382 324.1475387 577.61299635 323.30841446 576.52241135 C321.27363946 573.87779707 319.24012292 571.23224037 317.20856094 568.58515549 C311.75086661 561.47766794 306.25930312 554.3972656 300.75177383 547.32831955 C297.64725144 543.3414503 294.55505503 539.34602401 291.48639297 535.33149338 C282.90169787 524.10600849 273.79614515 513.35535276 264.56793594 502.65937424 C260.55270189 506.52671754 257.00323195 510.63447998 253.50543594 514.97187424 C252.93961807 515.67046555 252.3738002 516.36905685 251.79083633 517.0888176 C247.40535077 522.53878289 243.18985189 528.10226809 239.02325821 533.72040939 C235.10579971 538.98798161 231.04242968 544.12245002 226.92267227 549.23261642 C223.38371068 553.6261289 219.91682602 558.06558254 216.4883461 562.54609299 C212.95401612 567.16395034 209.3900999 571.75822889 205.81793594 576.34687424 C205.22512833 577.10846848 204.63232071 577.87006271 204.02154922 578.65473557 C202.80858914 580.21283229 201.59553509 581.77085587 200.38238907 583.32880783 C197.44280258 587.10454688 194.50543011 590.8820073 191.56793594 594.65937424 C188.02221566 599.21886808 184.47593698 603.77792263 180.92731094 608.33515549 C174.11255917 617.0884601 167.32190635 625.85908498 160.56793594 634.65937424 C158.90184341 636.82648271 157.23488396 638.99292377 155.56793594 641.15937424 C154.73458689 642.24269548 153.90125353 643.32602879 153.06793594 644.40937424 C148.06793594 650.90937424 143.06793594 657.40937424 138.06793594 663.90937424 C137.65575821 664.44522141 137.24358047 664.98106857 136.81891251 665.53315353 C135.98238684 666.62060425 135.14579792 667.7080063 134.30914688 668.79536057 C132.27414306 671.44031211 130.24037061 674.08618535 128.20856094 676.73359299 C122.24087616 684.50523478 116.23380949 692.245646 110.21246719 699.97578049 C107.80843746 703.06263439 105.41024305 706.1538749 103.01715469 709.24921799 C96.85777324 717.20846865 90.63077915 725.099741 84.26007462 732.89106369 C80.72930062 737.21330195 77.25440688 741.57435123 73.81793594 745.97187424 C69.14956485 751.93669002 64.43127425 757.85135871 59.56793594 763.65937424 C58.85121719 764.53593674 58.13449844 765.41249924 57.39606094 766.31562424 C47.65797176 777.78032497 33.8737077 785.44762314 18.69021416 786.83037758 C16.3478005 786.98632534 14.00607621 787.10767957 11.66095352 787.21577072 C10.74976415 787.25795196 9.83857477 787.30013319 8.8997736 787.34359264 C-3.66543836 787.86228615 -16.23871019 787.78692612 -28.81211877 787.76076818 C-32.39947703 787.75440813 -35.98683665 787.75392104 -39.57419968 787.75274277 C-46.33087485 787.74966601 -53.08753335 787.74150327 -59.84420127 787.73139328 C-67.55191533 787.72011687 -75.25963031 787.714693 -82.9673506 787.70969784 C-98.78893132 787.69931648 -114.61049552 787.68178984 -130.43206406 787.65937424 C-128.68302792 784.03782349 -126.53598305 780.84705722 -124.18206406 777.59687424 C-123.75022812 776.99689621 -123.31839218 776.39691818 -122.87347031 775.778759 C-113.59170351 762.92045706 -104.1569732 750.18583005 -94.43206406 737.65937424 C-92.76309529 735.49447577 -91.09760844 733.32690776 -89.43206406 731.15937424 C-88.5987936 730.07599254 -87.76546037 728.99265912 -86.93206406 727.90937424 C-86.31331406 727.10499924 -86.31331406 727.10499924 -85.68206406 726.28437424 C-81.93206405 721.40937423 -81.93206405 721.40937423 -80.68279648 719.7853508 C-79.84699029 718.69878645 -79.0112157 717.61219779 -78.17547226 716.52558517 C-76.1302277 713.86648876 -74.08436414 711.20787484 -72.03753281 708.54999924 C-67.32446406 702.42833967 -62.62331808 696.29777012 -57.93206406 690.15937424 C-52.44643964 682.98156332 -46.94409655 675.81692377 -41.43206406 668.65937424 C-39.76511113 666.49292772 -38.09858992 664.32614927 -36.43206406 662.15937424 C-35.59873858 661.07603486 -34.76540526 659.99270152 -33.93206406 658.90937424 C-33.51956406 658.37312424 -33.10706406 657.83687424 -32.68206406 657.28437424 C-28.93206405 652.40937423 -28.93206405 652.40937423 -27.68279648 650.7853508 C-26.84699029 649.69878645 -26.0112157 648.61219779 -25.17547226 647.52558517 C-23.1302277 644.86648876 -21.08436414 642.20787484 -19.03753281 639.54999924 C-14.32446383 633.42833937 -9.62339525 627.29771137 -4.93206406 621.15937424 C2.7994844 611.04518255 10.55639298 600.95223937 18.38043594 590.90937424 C24.67057963 582.83438624 30.89606137 574.71150297 37.1055336 566.5744133 C43.81982459 557.78194277 50.59896709 549.04065319 57.3958168 540.31196213 C60.80025026 535.93813694 64.19284226 531.55587785 67.56793594 527.15937424 C76.10201869 516.04684941 84.71644917 504.99634882 93.38409805 493.98774338 C97.13040991 489.22585272 100.85087437 484.44411846 104.56793594 479.65937424 C110.10238981 472.53604247 115.66101782 465.43240697 121.24127579 458.34492111 C123.05763783 456.03719871 124.87192704 453.72785092 126.68610001 451.41840744 C127.60587828 450.24755894 128.52579972 449.07682289 129.44586563 447.90620041 C131.72689542 445.00391783 134.00639893 442.10046128 136.28277969 439.19453049 C137.19024464 438.03691009 138.09779684 436.87935809 139.00543594 435.72187424 C139.45370743 435.14985275 139.90197891 434.57783127 140.36383438 433.9884758 C143.29897375 430.25113464 146.26923443 426.543991 149.25543594 422.84736252 C164.64364422 404.91010107 164.64364422 404.91010107 169.56793594 382.65937424 C166.96320253 370.65717125 159.15193232 361.1338647 151.36090469 352.01093674 C148.18386054 348.25118838 145.22358519 344.33470509 142.25543594 340.40937424 C137.96039684 334.73870883 133.58126865 329.1578921 129.06793594 323.65937424 C124.62168458 318.24073512 120.30116787 312.74599325 116.06793594 307.15937424 C111.24884469 300.79983128 106.29197832 294.57475906 101.23639297 288.40205002 C97.06364869 283.29781049 93.02472859 278.1068037 89.02496719 272.86640549 C86.42390958 269.46083227 83.78097352 266.08901274 81.13043594 262.72187424 C80.67048233 262.13744553 80.21052872 261.55301682 79.73663712 260.95087814 C78.34750884 259.18669739 76.95776196 257.42300534 75.56793594 255.65937424 C68.93614309 247.23947876 62.33543413 238.79628075 55.76007462 230.3322258 C52.20954664 225.76386363 48.64718955 221.20525852 45.06793594 216.65937424 C39.13509565 209.12261975 33.25071607 201.54839465 27.36627579 193.97382736 C24.43494233 190.20121792 21.50137251 186.43034846 18.56793594 182.65937424 C15.03162445 178.11339577 11.49585751 173.56699875 7.96246719 169.01874924 C2.67971801 162.22008072 -2.60663738 155.42468943 -7.93206406 148.65937424 C-13.86480425 141.12254015 -19.74928324 133.54839553 -25.63372421 125.97382736 C-28.56505768 122.2012179 -31.49865603 118.43037069 -34.43206406 114.65937424 C-35.598742 113.159383 -36.76540865 111.659383 -37.93206406 110.15937424 C-38.50956406 109.41687424 -39.08706406 108.67437424 -39.68206406 107.90937424 C-50.76539739 93.65937424 -61.84873072 79.40937424 -72.93206406 65.15937424 C-73.79831406 64.04574509 -73.79831406 64.04574509 -74.68206406 62.90961838 C-75.84904625 61.4090499 -77.01571279 59.9082359 -78.18206406 58.40717697 C-81.09136907 54.66380083 -84.00597426 50.92480512 -86.93206406 47.19453049 C-120.43206406 4.42867241 -120.43206406 4.42867241 -120.43206406 0.65937424 C-80.28477408 -0.03869236 -40.15214718 -0.56631969 0 0 Z " fill="#671214" transform="translate(1767.4320640563965,1474.3406257629395)"/>
<path d="M0 0 C0 45.54 0 91.08 0 138 C-3.5698449 139.1899483 -6.9283503 139.28579708 -10.65136719 139.43310547 C-11.43106369 139.4674469 -12.21076019 139.50178833 -13.01408386 139.53717041 C-14.713083 139.61156363 -16.41216731 139.68403048 -18.1113205 139.75481796 C-20.83389527 139.86873651 -23.55614235 139.98871749 -26.27838135 140.11038208 C-34.02196629 140.4555122 -41.76594374 140.79118534 -49.51025391 141.11962891 C-123.81614139 144.28369643 -198.63944462 154.46176399 -254.47412109 208.52539062 C-255.53057522 209.54634789 -256.59389417 210.56023145 -257.66259766 211.56835938 C-302.46343981 253.85570629 -325.33619026 316.72725545 -327.21308708 377.55685616 C-327.34663971 383.6826397 -327.38025016 389.80878778 -327.41186523 395.93579102 C-327.43063907 398.29804195 -327.45009947 400.6602875 -327.4701786 403.02252769 C-327.51665594 408.79565556 -327.55377904 414.56878747 -327.58602773 420.34201135 C-327.61298972 425.14358267 -327.64404521 429.94511356 -327.67733574 434.74664497 C-328.16671492 505.82923299 -328.11814952 576.91352595 -328.07202852 647.99738371 C-328.06393917 660.60527036 -328.0585932 673.21315623 -328.05493164 685.82104492 C-328.05466364 686.7345052 -328.05439565 687.64796548 -328.05411953 688.58910638 C-328.05203676 695.74647599 -328.05008101 702.90384563 -328.04816496 710.06121528 C-328.03894765 744.37414894 -328.01878331 778.68706766 -328 813 C-374.53 813 -421.06 813 -469 813 C-469 554.28 -469 295.56 -469 29 C-423.46 29 -377.92 29 -331 29 C-330.67 52.76 -330.34 76.52 -330 101 C-325.71 96.05 -321.42 91.1 -317 86 C-299.31423222 66.31829179 -279.7461598 50.52707231 -257 37 C-256.37480469 36.62536621 -255.74960938 36.25073242 -255.10546875 35.86474609 C-199.08277582 2.7759549 -129.84833276 0.95943136 -66.6385498 0.39910889 C-63.19105911 0.36684431 -59.7436684 0.32735321 -56.29625797 0.28752708 C-52.06341616 0.23876607 -47.83054292 0.19311762 -43.59765625 0.1484375 C-42.8379912 0.14039471 -42.07832615 0.13235191 -41.29564095 0.1240654 C-27.52944118 -0.01671557 -13.76811348 0 0 0 Z " fill="#671214" transform="translate(3727,1447)"/>
<path d="M0 0 C43.89 0 87.78 0 133 0 C133 325.05 133 650.1 133 985 C89.11 985 45.22 985 0 985 C0 659.95 0 334.9 0 0 Z " fill="#671214" transform="translate(2588,1274)"/>
<path d="M0 0 C43.89 0 87.78 0 133 0 C133 258.39 133 516.78 133 783 C89.11 783 45.22 783 0 783 C0 524.61 0 266.22 0 0 Z " fill="#671214" transform="translate(2923,1476)"/>
<path d="M0 0 C113.71945786 0 113.71945786 0 135.2109375 21.09375 C152.55673863 38.82762669 158.3125 63.40631587 158.3125 87.52734375 C158.04810343 107.47726704 152.30827048 126.14617162 137.875 140.4375 C131.93925321 145.72805693 125.20587198 149.68919396 118 153 C119.72588943 157.63632499 121.95565795 161.96202771 124.21875 166.3515625 C124.63612427 167.16507172 125.05349854 167.97858093 125.48352051 168.81674194 C126.37012103 170.54373411 127.25780187 172.27017202 128.14648438 173.99609375 C129.46986717 176.56647362 130.78993759 179.13853058 132.109375 181.7109375 C139.90560193 196.89354873 147.74214886 212.06201725 156 227 C157.98773439 221.65467356 158.98581035 216.27135194 159.98828125 210.6796875 C160.17154465 209.67703857 160.35480804 208.67438965 160.54362488 207.64135742 C161.13740882 204.38664632 161.72497876 201.13084687 162.3125 197.875 C162.72359392 195.61598183 163.13505392 193.35703025 163.546875 191.09814453 C165.74911581 179.00041858 167.91152228 166.89609901 170.04394531 154.78588867 C172.45019385 141.26549977 175.08760787 127.7873218 177.703125 114.30615234 C179.76326705 103.6575295 181.72032719 92.99834739 183.55641174 82.3087616 C184.96847823 74.10917673 186.49506688 65.93477938 188.06506348 57.76416016 C190.3871125 45.67621032 192.67773759 33.58714426 194.66992188 21.43945312 C195.82819396 14.51753048 197.41063139 7.88726398 199 1 C227.38 1 255.76 1 285 1 C286.77843448 8.70654939 288.47564211 16.22938049 289.75 24 C291.52737825 34.52754813 293.49817411 45.01344326 295.5 55.5 C297.56995904 66.35335724 299.59307674 77.20786821 301.44140625 88.1015625 C303.01118351 97.25639794 304.76054788 106.37624186 306.5 115.5 C308.59211901 126.47436735 310.63887703 137.45015872 312.51391602 148.46411133 C313.90035356 156.55519988 315.41385934 164.62137733 316.9375 172.6875 C320.79118251 193.09594763 324.39061536 213.54682037 328 234 C328.33 156.78 328.66 79.56 329 0 C351.77 0 374.54 0 398 0 C406.03813035 25.26269539 406.03813035 25.26269539 408.4375 33.328125 C408.72015717 34.27217194 409.00281433 35.21621887 409.29403687 36.18887329 C410.19780005 39.20872133 411.09894632 42.22934253 412 45.25 C412.64124816 47.39475102 413.28269124 49.53944377 413.92431641 51.68408203 C414.92311354 55.0228072 415.9217276 58.36158623 416.91958618 61.70059204 C419.36358981 69.87810957 421.81645188 78.05293686 424.2734375 86.2265625 C424.96745539 88.53613057 425.66146591 90.84570085 426.35546875 93.15527344 C427.36012214 96.49853129 428.36499001 99.84172377 429.37060547 103.18469238 C430.29739821 106.26610315 431.22304538 109.34785587 432.1484375 112.4296875 C432.42376312 113.34400543 432.69908875 114.25832336 432.98275757 115.2003479 C433.23514191 116.04157196 433.48752625 116.88279602 433.74755859 117.74951172 C434.07607315 118.84233963 434.07607315 118.84233963 434.41122437 119.95724487 C434.98803467 121.95848633 435.49486883 123.97947531 436 126 C436.33 84.42 436.66 42.84 437 0 C456.14 0 475.28 0 495 0 C495 81.51 495 163.02 495 247 C472.23 247 449.46 247 426 247 C413.08820707 205.06995079 400.5321922 163.04587559 388 121 C387.67 162.58 387.34 204.16 387 247 C347.07 247 307.14 247 266 247 C263.98008906 230.33573471 261.96132496 213.67126217 260 197 C248.12 197 236.24 197 224 197 C223.566875 200.8775 223.13375 204.755 222.6875 208.75 C221.71231479 217.31194228 220.65837808 225.85343382 219.375 234.375 C219.19070435 235.60234863 219.19070435 235.60234863 219.00268555 236.85449219 C218.47162448 240.29339627 217.84480701 243.62077195 217 247 C178.72 247 140.44 247 101 247 C87.91292161 218.81244655 75.3568926 190.51590599 63 162 C62.67 190.05 62.34 218.1 62 247 C41.54 247 21.08 247 0 247 C0 165.49 0 83.98 0 0 Z " fill="#FEFEFD" transform="translate(1324,2520)"/>
<path d="M0 0 C60.06 0 120.12 0 182 0 C190.72778698 59.84768212 190.72778698 59.84768212 191.9375 71.8125 C192.67198561 78.74571307 193.70700981 85.59102076 194.89208984 92.46020508 C196.65024717 102.6782411 197.89616348 112.94360771 199 123.25 C199.6151762 128.98584287 200.4047615 134.61902247 201.50390625 140.28515625 C204.0789046 154.37668263 205.31563928 168.78082254 207 183 C209.59963673 170.27753539 211.09284272 157.44021404 212.55371094 144.54931641 C213.59659687 135.3494361 214.75310008 126.17495982 216 117 C216.26200825 115.01062564 216.52253817 113.02105574 216.78125 111.03125 C216.89984375 110.11923828 217.0184375 109.20722656 217.140625 108.26757812 C217.31851563 106.89762695 217.31851563 106.89762695 217.5 105.5 C218.47616999 97.99813362 219.46453194 90.49816155 220.46875 83 C221.15743607 77.8348545 221.82727942 72.66724385 222.5 67.5 C222.75907217 65.51431738 223.01818594 63.52864019 223.27734375 61.54296875 C223.70927695 58.23335807 224.13915628 54.9234993 224.56640625 51.61328125 C224.73011719 50.35902344 224.89382812 49.10476562 225.0625 47.8125 C225.19785156 46.76707031 225.33320313 45.72164062 225.47265625 44.64453125 C225.91931127 41.5576488 226.42941369 38.49478658 226.9609375 35.421875 C228.07903244 28.78509068 228.83878364 22.12708989 229.5625 15.4375 C229.8108024 13.14420448 230.06196643 10.85121644 230.31640625 8.55859375 C230.42412354 7.56142334 230.53184082 6.56425293 230.64282227 5.53686523 C231 3 231 3 232 0 C294.7 0 357.4 0 422 0 C422 18.15 422 36.3 422 55 C400.55 55 379.1 55 357 55 C357 67.87 357 80.74 357 94 C375.48 94 393.96 94 413 94 C413 112.48 413 130.96 413 150 C394.52 150 376.04 150 357 150 C357 163.53 357 177.06 357 191 C378.45 191 399.9 191 422 191 C422 209.48 422 227.96 422 247 C380.09 247 338.18 247 295 247 C294.505 128.695 294.505 128.695 294 8 C288.80003496 34.59644251 288.80003496 34.59644251 283.77996254 61.22502136 C282.96749037 65.63909437 282.14815476 70.05189727 281.32958984 74.46484375 C281.05984266 75.91971821 281.05984266 75.91971821 280.78464603 77.40398407 C278.32256639 90.66946758 275.82551498 103.92841008 273.33130503 117.18788147 C272.9258502 119.34338344 272.52046785 121.49889902 272.11510849 123.65441895 C270.3217208 133.19074384 268.52766095 142.72694221 266.73338318 152.26309967 C264.778849 162.65101339 262.82447591 173.03895735 260.87090367 183.42705202 C260.09488289 187.55341016 259.31850868 191.67970157 258.54181445 195.805933 C257.93943688 199.0066324 257.33756207 202.20742636 256.7355957 205.40820312 C256.53237198 206.48722397 256.32914825 207.56624481 256.11976624 208.67796326 C253.71937722 221.44702904 251.36586522 234.22432781 249 247 C221.61 247 194.22 247 166 247 C163.9708601 238.20706042 162.06418202 229.46101748 160.3984375 220.6015625 C160.03449062 218.68386318 159.67054335 216.76616394 159.30657959 214.84846783 C158.9238924 212.82944891 158.54246492 210.8101959 158.16143799 208.79086304 C157.35935784 204.54018601 156.55377176 200.29017802 155.74755859 196.0402832 C154.92883281 191.72384659 154.11021486 187.40739009 153.29275513 183.0907135 C151.25705302 172.34227841 149.20215025 161.59761215 147.13748169 150.85470581 C140.68085591 117.25126174 134.35138359 83.62345875 128 50 C127.67 51.65 127.34 53.3 127 55 C105.55 55 84.1 55 62 55 C62 67.87 62 80.74 62 94 C80.48 94 98.96 94 118 94 C118 112.48 118 130.96 118 150 C99.52 150 81.04 150 62 150 C62 163.53 62 177.06 62 191 C83.45 191 104.9 191 127 191 C127 209.48 127 227.96 127 247 C85.09 247 43.18 247 0 247 C0 165.49 0 83.98 0 0 Z " fill="#FEFEFE" transform="translate(2047,2520)"/>
<path d="M0 0 C113.71945786 0 113.71945786 0 135.2109375 21.09375 C152.55673863 38.82762669 158.3125 63.40631587 158.3125 87.52734375 C158.04810343 107.47726704 152.30827048 126.14617162 137.875 140.4375 C131.93925321 145.72805693 125.20587198 149.68919396 118 153 C119.72588943 157.63632499 121.95565795 161.96202771 124.21875 166.3515625 C124.63612427 167.16507172 125.05349854 167.97858093 125.48352051 168.81674194 C126.37012103 170.54373411 127.25780187 172.27017202 128.14648438 173.99609375 C129.46986717 176.56647362 130.78993759 179.13853058 132.109375 181.7109375 C139.90560193 196.89354873 147.74214886 212.06201725 156 227 C157.98773439 221.65467356 158.98581035 216.27135194 159.98828125 210.6796875 C160.17154465 209.67703857 160.35480804 208.67438965 160.54362488 207.64135742 C161.13740882 204.38664632 161.72497876 201.13084687 162.3125 197.875 C162.72359392 195.61598183 163.13505392 193.35703025 163.546875 191.09814453 C165.74911581 179.00041858 167.91152228 166.89609901 170.04394531 154.78588867 C172.45019385 141.26549977 175.08760787 127.7873218 177.703125 114.30615234 C179.76326705 103.6575295 181.72032719 92.99834739 183.55641174 82.3087616 C184.96847823 74.10917673 186.49506688 65.93477938 188.06506348 57.76416016 C190.3871125 45.67621032 192.67773759 33.58714426 194.66992188 21.43945312 C195.82819396 14.51753048 197.41063139 7.88726398 199 1 C227.38 1 255.76 1 285 1 C286.77843448 8.70654939 288.47564211 16.22938049 289.75 24 C291.52737825 34.52754813 293.49817411 45.01344326 295.5 55.5 C297.56995904 66.35335724 299.59307674 77.20786821 301.44140625 88.1015625 C303.01118351 97.25639794 304.76054788 106.37624186 306.5 115.5 C308.59211901 126.47436735 310.63887703 137.45015872 312.51391602 148.46411133 C314.01856004 157.24503915 315.67317286 165.99703624 317.32739258 174.7507019 C319.34243667 185.41859166 321.27952208 196.09802833 323.16455078 206.78979492 C324.82567288 216.15806477 326.61522652 225.49911219 328.47680664 234.82958984 C328.67653076 235.8448877 328.87625488 236.86018555 329.08203125 237.90625 C329.25968018 238.79634766 329.4373291 239.68644531 329.62036133 240.60351562 C330 243 330 243 330 247 C308.88 247 287.76 247 266 247 C265.38125 241.905625 264.7625 236.81125 264.125 231.5625 C263.83906982 229.21040405 263.83906982 229.21040405 263.54736328 226.81079102 C263.38993652 225.51326904 263.23250977 224.21574707 263.0703125 222.87890625 C262.91320801 221.5854126 262.75610352 220.29191895 262.59423828 218.95922852 C261.71732544 211.6409333 260.86119546 204.32016143 260 197 C248.12 197 236.24 197 224 197 C223.566875 200.8775 223.13375 204.755 222.6875 208.75 C221.71231479 217.31194228 220.65837808 225.85343382 219.375 234.375 C219.19070435 235.60234863 219.19070435 235.60234863 219.00268555 236.85449219 C218.47162448 240.29339627 217.84480701 243.62077195 217 247 C178.72 247 140.44 247 101 247 C87.91292161 218.81244655 75.3568926 190.51590599 63 162 C62.67 190.05 62.34 218.1 62 247 C41.54 247 21.08 247 0 247 C0 165.49 0 83.98 0 0 Z " fill="#FEFEFE" transform="translate(819,2520)"/>
<path d="M0 0 C3.66348704 2.73284315 6.84441365 5.70047462 10 9 C10.75539063 9.74765625 11.51078125 10.4953125 12.2890625 11.265625 C28.50301497 28.09247601 35.52490315 50.47257123 40.125 72.875 C40.36307373 74.02295044 40.36307373 74.02295044 40.60595703 75.1940918 C43.36209506 89.20518464 44.37786652 102.94531025 44.3125 117.1875 C44.31100952 117.99604431 44.30951904 118.80458862 44.3079834 119.63763428 C44.26606494 132.32359777 43.49472538 144.53702295 41 157 C40.70596952 158.61569256 40.41301527 160.23158131 40.12109375 161.84765625 C35.99536002 183.80008974 28.50914395 206.36125305 13 223 C12.30390625 223.77472656 11.6078125 224.54945313 10.890625 225.34765625 C-2.67318513 239.75319219 -21.10106005 246.78585563 -40.65869141 247.40454102 C-61.57918647 247.65838488 -79.39705203 241.22651277 -95 227 C-125.38569535 196.35310956 -129.31598267 149.50678421 -129.2512207 108.75268555 C-129.18147996 96.97375651 -128.27853882 85.56537863 -126 74 C-125.83371094 73.13165527 -125.66742187 72.26331055 -125.49609375 71.36865234 C-120.02361539 43.66676418 -108.27939049 15.41415206 -84.08203125 -0.9765625 C-58.24611853 -16.6853322 -25.51387155 -16.26293336 0 0 Z " fill="#FEFEFD" transform="translate(3419,2526)"/>
<path d="M0 0 C108.76371308 0 108.76371308 0 130 21 C158.00700237 51.97681706 163.6867718 96.89040244 162 137 C160.22227595 167.15293484 152.12373619 198.95873164 133 223 C132.34 223 131.68 223 131 223 C130.73703125 223.59296875 130.4740625 224.1859375 130.203125 224.796875 C125.29650075 233.7817324 112.63679334 240.24311206 103.125 243.359375 C99.76342515 244.32582777 96.40563468 245.20475285 93 246 C91.68 246.33 90.36 246.66 89 247 C59.63 247 30.26 247 0 247 C0 165.49 0 83.98 0 0 Z " fill="#FEFDFD" transform="translate(3659,2520)"/>
<path d="M0 0 C22.77 0 45.54 0 69 0 C77.03813035 25.26269539 77.03813035 25.26269539 79.4375 33.328125 C79.72015717 34.27217194 80.00281433 35.21621887 80.29403687 36.18887329 C81.19780005 39.20872133 82.09894632 42.22934253 83 45.25 C83.64124816 47.39475102 84.28269124 49.53944377 84.92431641 51.68408203 C85.92311354 55.0228072 86.9217276 58.36158623 87.91958618 61.70059204 C90.36358981 69.87810957 92.81645188 78.05293686 95.2734375 86.2265625 C95.96745539 88.53613057 96.66146591 90.84570085 97.35546875 93.15527344 C98.36012214 96.49853129 99.36499001 99.84172377 100.37060547 103.18469238 C101.29739821 106.26610315 102.22304538 109.34785587 103.1484375 112.4296875 C103.42376312 113.34400543 103.69908875 114.25832336 103.98275757 115.2003479 C104.36133408 116.46218399 104.36133408 116.46218399 104.74755859 117.74951172 C104.9665683 118.47806366 105.185578 119.2066156 105.41122437 119.95724487 C105.98803467 121.95848633 106.49486883 123.97947531 107 126 C107.33 84.42 107.66 42.84 108 0 C127.14 0 146.28 0 166 0 C166 81.51 166 163.02 166 247 C143.23 247 120.46 247 97 247 C84.08820707 205.06995079 71.5321922 163.04587559 59 121 C58.67 162.58 58.34 204.16 58 247 C38.86 247 19.72 247 0 247 C0 165.49 0 83.98 0 0 Z " fill="#FEFDFD" transform="translate(3477,2520)"/>
<path d="M0 0 C113.71945786 0 113.71945786 0 135.2109375 21.09375 C152.55673863 38.82762669 158.3125 63.40631587 158.3125 87.52734375 C158.04810343 107.47726704 152.30827048 126.14617162 137.875 140.4375 C131.93925321 145.72805693 125.20587198 149.68919396 118 153 C119.72588943 157.63632499 121.95565795 161.96202771 124.21875 166.3515625 C124.63612427 167.16507172 125.05349854 167.97858093 125.48352051 168.81674194 C126.37012103 170.54373411 127.25780187 172.27017202 128.14648438 173.99609375 C129.46986717 176.56647362 130.78993759 179.13853058 132.109375 181.7109375 C137.64312042 192.48737302 143.25524917 203.22075833 148.91052246 213.93383789 C151.41211214 218.67802914 153.89387829 223.4325832 156.375 228.1875 C156.86871094 229.13173828 157.36242188 230.07597656 157.87109375 231.04882812 C158.35449219 231.97501953 158.83789062 232.90121094 159.3359375 233.85546875 C159.75407715 234.65621826 160.1722168 235.45696777 160.60302734 236.28198242 C162.43154441 239.83963369 164.21112565 243.4222513 166 247 C144.55 247 123.1 247 101 247 C87.91292161 218.81244655 75.3568926 190.51590599 63 162 C62.67 190.05 62.34 218.1 62 247 C41.54 247 21.08 247 0 247 C0 165.49 0 83.98 0 0 Z " fill="#FEFEFD" transform="translate(2478,2520)"/>
<path d="M0 0 C0.86705566 0.00531738 1.73411133 0.01063477 2.62744141 0.01611328 C11.36648588 0.13426911 20.08926114 0.61514995 28.8125 1.125 C29.50143341 1.16411499 30.19036682 1.20322998 30.900177 1.24353027 C32.93132946 1.36125369 34.96174997 1.48776083 36.9921875 1.6171875 C38.16249512 1.69050293 39.33280273 1.76381836 40.53857422 1.83935547 C47.02641119 2.44500214 53.47861485 3.38881531 59.9375 4.25 C59.9375 23.72 59.9375 43.19 59.9375 63.25 C48.9375 61.25 48.9375 61.25 43.60546875 60.1796875 C33.73644933 58.24286899 24.07246898 56.84779929 14 56.75 C12.66134888 56.72268799 12.66134888 56.72268799 11.2956543 56.69482422 C4.65326973 56.75659039 -0.73409853 58.26809734 -5.75805664 62.76904297 C-19.0014242 76.48966937 -21.18979081 98.41393906 -21.265625 116.51953125 C-21.27417511 118.13295662 -21.27417511 118.13295662 -21.28289795 119.77897644 C-21.29231222 122.0524295 -21.29886766 124.32589598 -21.30273438 126.59936523 C-21.31236257 130.01376436 -21.3433888 133.42754065 -21.375 136.84179688 C-21.47621429 157.45771259 -20.74177131 179.92584713 -8.0625 197.25 C-2.57976288 202.08003032 0.74296121 202.60496513 7.953125 202.52734375 C11.97765882 202.15333603 14.01759163 201.02391295 16.9375 198.25 C23.20653651 190.54804086 24.40864438 182.20301291 24.1875 172.5625 C24.17976563 171.19641602 24.17976563 171.19641602 24.171875 169.80273438 C24.11706183 165.08537584 23.72293885 160.96263311 22.9375 156.25 C15.0175 155.92 7.0975 155.59 -1.0625 155.25 C-1.0625 140.07 -1.0625 124.89 -1.0625 109.25 C23.0275 109.25 47.1175 109.25 71.9375 109.25 C79.43461548 148.20822509 87.39371145 191.98287639 65.625 228.0625 C54.96205242 243.70921656 42.00933922 252.43892871 23.9375 257.25 C22.64199219 257.61738281 22.64199219 257.61738281 21.3203125 257.9921875 C1.66152841 262.57714353 -19.69169231 259.39495356 -37.04296875 249.24609375 C-64.3149642 231.21764656 -74.45527436 201.87502368 -81.0625 171.25 C-81.2996875 170.21101563 -81.536875 169.17203125 -81.78125 168.1015625 C-83.56353515 159.58328787 -83.81338773 150.92049086 -84.0625 142.25 C-84.10181641 141.05358887 -84.14113281 139.85717773 -84.18164062 138.62451172 C-85.2865495 100.53792812 -81.55023789 57.70735474 -56.0625 27.25 C-55.35351562 26.37988281 -54.64453125 25.50976562 -53.9140625 24.61328125 C-40.47580006 8.84100481 -20.71239854 -0.24089098 0 0 Z " fill="#FEFDFD" transform="translate(1230.0625,2513.75)"/>
<path d="M0 0 C41.91 0 83.82 0 127 0 C127 18.15 127 36.3 127 55 C105.55 55 84.1 55 62 55 C62 67.87 62 80.74 62 94 C80.48 94 98.96 94 118 94 C118 112.48 118 130.96 118 150 C99.52 150 81.04 150 62 150 C62 163.53 62 177.06 62 191 C83.45 191 104.9 191 127 191 C127 209.48 127 227.96 127 247 C85.09 247 43.18 247 0 247 C0 165.49 0 83.98 0 0 Z " fill="#FEFEFE" transform="translate(3009,2520)"/>
<path d="M0 0 C0 19.47 0 38.94 0 59 C-4.59800619 57.46733127 -9.07738978 55.81743684 -13.5625 54 C-14.20896484 53.73960937 -14.85542969 53.47921875 -15.52148438 53.2109375 C-18.25259089 52.11071555 -20.98196738 51.00745279 -23.703125 49.8828125 C-34.31534335 45.80396667 -49.06411822 44.77542785 -59.875 48.625 C-63.97120366 50.65191457 -66.2087576 52.68473421 -68 57 C-69.44360531 64.30212008 -66.85340775 69.8971892 -63 76 C-54.38783056 88.45158488 -42.86664577 99.21498264 -32.125 109.8125 C-26.31473188 115.56778604 -20.93797124 121.46471829 -16 128 C-15.59442871 128.52916016 -15.18885742 129.05832031 -14.77099609 129.60351562 C-1.1799802 147.43690311 6.25566206 165.16978081 5 188 C2.42363267 205.68970327 -5.22779688 221.39587179 -19 233 C-39.83991721 248.42862495 -67.00952325 252.77339796 -92.29614258 249.12817383 C-96.212623 248.49219226 -100.10659925 247.76349029 -104 247 C-104.82338867 246.8448291 -105.64677734 246.6896582 -106.49511719 246.52978516 C-108.99985671 246.05524876 -111.50039105 245.56331789 -114 245.0625 C-114.74072754 244.9171582 -115.48145508 244.77181641 -116.24462891 244.62207031 C-122.53677857 243.29666983 -127.78400164 241.26036304 -134 239 C-134 219.86 -134 200.72 -134 181 C-131.03 181.99 -128.06 182.98 -125 184 C-121.33796131 185.20206914 -117.66969723 186.3840406 -114 187.5625 C-113.06671875 187.86607422 -112.1334375 188.16964844 -111.171875 188.48242188 C-95.89546226 193.37898155 -79.66130174 196.37025728 -64.4921875 189.48046875 C-61.03378038 187.42602314 -59.41151215 185.78879578 -58 182 C-56.66840026 174.27672153 -59.8624539 168.42448068 -64 162 C-70.52696069 153.32098286 -78.20816648 145.5343542 -86.03735352 138.03540039 C-87.39269367 136.72499328 -88.70137735 135.36663562 -90 134 C-90 133.34 -90 132.68 -90 132 C-90.83144531 131.66935547 -90.83144531 131.66935547 -91.6796875 131.33203125 C-109.92648936 120.85701537 -124.85258775 92.33769192 -130.14453125 73.0546875 C-131.09963628 69.0280074 -131.34599697 65.06685172 -131.3125 60.9375 C-131.30758545 60.2057959 -131.3026709 59.4740918 -131.29760742 58.72021484 C-130.91428516 40.49766404 -124.3738735 23.55015244 -111.75 10.25 C-106.95687721 5.70059532 -101.75921306 2.21388253 -96 -1 C-95.17113281 -1.46277344 -94.34226562 -1.92554687 -93.48828125 -2.40234375 C-64.74180077 -16.88563943 -29.07556989 -9.69185663 0 0 Z " fill="#FEFEFE" transform="translate(2994,2524)"/>
<path d="M0 0 C20.79 0 41.58 0 63 0 C65.36584483 7.0975345 67.6270704 13.97247484 69.4375 21.1875 C70.98365334 27.19925889 72.59720813 33.17754392 74.375 39.125 C79.05150498 54.80394354 83.47008904 70.56681557 87.49023438 86.42724609 C88.16554304 90.00597708 88.16554304 90.00597708 90 93 C92.22814393 84.8615596 94.45425738 76.7225673 96.6780405 68.58293438 C97.71159783 64.80007097 98.74575785 61.01737487 99.78149414 57.23510742 C100.7881128 53.5590707 101.79288936 49.88253435 102.79658318 46.20569801 C103.17255943 44.82951077 103.54911126 43.45348059 103.92636299 42.07764244 C107.76159951 28.08727167 111.35870966 14.04497703 115 0 C136.12 0 157.24 0 179 0 C170.96558671 24.10323988 170.96558671 24.10323988 168.046875 32.125 C167.70901978 33.06067307 167.37116455 33.99634613 167.02307129 34.96037292 C166.30511507 36.9478941 165.58603091 38.93500818 164.86584473 40.92172241 C163.30449028 45.22902635 161.74899772 49.53844112 160.1930542 53.84770203 C159.37371456 56.11677532 158.55409163 58.38574634 157.73419189 60.65461731 C153.21698314 73.15752259 148.73265122 85.67217222 144.25 98.1875 C143.16327375 101.22108168 142.0764923 104.2546301 140.98648071 107.28703308 C140.24742744 109.35640899 139.51695477 111.42886683 138.79452515 113.50410461 C136.78665624 119.22811147 134.66976694 124.85187999 132.31503868 130.44050026 C121.79120628 155.528977 119.00614609 177.53174611 119.57513428 204.61712646 C119.67528829 210.28177394 119.66602159 215.94733721 119.67672729 221.6127243 C119.70416596 230.07853184 119.86382942 238.53213508 120 247 C99.54 247 79.08 247 58 247 C58.27457031 238.87503906 58.27457031 238.87503906 58.5546875 230.5859375 C59.3878996 195.28758272 59.9958391 161.57059404 46.875 128.3125 C46.62591888 127.68071335 46.37683777 127.0489267 46.12020874 126.397995 C43.45924682 119.69745219 40.65185886 113.06532306 37.765625 106.45849609 C34.1572483 98.15588292 31.17264563 89.66651895 28.23324585 81.10946655 C26.82114781 77.02169806 25.35592306 72.95316026 23.89453125 68.8828125 C23.28454975 67.17745113 22.67469129 65.47204576 22.06494141 63.76660156 C20.29219796 58.81354473 18.51549455 53.86191327 16.73815155 48.91050529 C14.87105805 43.70874261 13.00615685 38.50619666 11.14247894 33.3032093 C9.99256825 30.09336699 8.84142596 26.88397744 7.68743896 23.67559814 C6.40466032 20.10766376 5.12574642 16.53836605 3.84765625 12.96875 C3.4578508 11.88761932 3.06804535 10.80648865 2.66642761 9.69259644 C2.13750664 8.21184128 2.13750664 8.21184128 1.59790039 6.70117188 C1.13281822 5.40560364 1.13281822 5.40560364 0.65834045 4.0838623 C0 2 0 2 0 0 Z " fill="#FEFEFE" transform="translate(2625,2520)"/>
<path d="M0 0 C41.91 0 83.82 0 127 0 C127 18.15 127 36.3 127 55 C105.55 55 84.1 55 62 55 C62 71.17 62 87.34 62 104 C80.48 104 98.96 104 118 104 C118 122.15 118 140.3 118 159 C99.52 159 81.04 159 62 159 C62 188.04 62 217.08 62 247 C41.54 247 21.08 247 0 247 C0 165.49 0 83.98 0 0 Z " fill="#FEFDFD" transform="translate(682,2520)"/>
<path d="M0 0 C0 19.47 0 38.94 0 59 C-8.25 57.35 -16.5 55.7 -25 54 C-31.46386907 53.19201637 -37.52626082 52.75364856 -44 52.6875 C-44.94617187 52.65849609 -45.89234375 52.62949219 -46.8671875 52.59960938 C-54.27821333 52.53288961 -59.38715697 54.03443049 -65.13671875 58.75390625 C-77.38590368 73.03947961 -80.11921407 93.11491152 -80.203125 111.359375 C-80.21167511 112.83606659 -80.21167511 112.83606659 -80.22039795 114.34259033 C-80.22980766 116.42353252 -80.23636582 118.50448935 -80.24023438 120.58544922 C-80.24984316 123.69917525 -80.28086507 126.81221242 -80.3125 129.92578125 C-80.41958843 150.22171371 -80.19430851 176.20464924 -65.19921875 191.8828125 C-58.83554241 197.5242729 -54.06344553 198.38747761 -45.6875 198.375 C-44.67727783 198.37483887 -43.66705566 198.37467773 -42.6262207 198.37451172 C-31.51421605 198.21126414 -20.85143101 196.23776863 -10 194 C-6.7 193.34 -3.4 192.68 0 192 C0 211.47 0 230.94 0 251 C-30.95784464 254.71494136 -30.95784464 254.71494136 -42 255 C-43.00240723 255.02723145 -44.00481445 255.05446289 -45.03759766 255.08251953 C-67.79134092 255.61369633 -87.10086628 253.33648242 -105 238 C-106.43859375 236.8553125 -106.43859375 236.8553125 -107.90625 235.6875 C-131.35749955 216.07683851 -139.96939893 177.64661839 -142.78782654 148.68127441 C-143.11104943 144.59664825 -143.1623677 140.52938221 -143.16796875 136.43359375 C-143.17129715 135.55582779 -143.17462555 134.67806183 -143.17805481 133.7736969 C-143.18308051 131.92750567 -143.1854645 130.08130549 -143.18530273 128.23510742 C-143.18747571 125.46842743 -143.20564144 122.70215594 -143.22460938 119.93554688 C-143.2731727 105.01425533 -142.19277536 90.56408459 -138.75 76 C-138.53456543 75.07703125 -138.31913086 74.1540625 -138.09716797 73.203125 C-131.7007247 46.72120975 -119.79275682 20.8576352 -96 6 C-67.58666477 -10.89441554 -31.12439159 -4.44634166 0 0 Z " fill="#FEFEFD" transform="translate(3286,2518)"/>
<path d="M0 0 C47.85 0 95.7 0 145 0 C145 18.15 145 36.3 145 55 C131.14 55 117.28 55 103 55 C103 118.36 103 181.72 103 247 C82.54 247 62.08 247 41 247 C41 183.97 41 120.94 41 56 C27.47 56 13.94 56 0 56 C0 37.52 0 19.04 0 0 Z " fill="#FEFEFE" transform="translate(1825,2520)"/>
<path d="M0 0 C13.39914567 10.62439071 22.85007175 26.06744012 24.8671875 43.2734375 C26.05579632 65.13840855 24.53806422 86.42314059 9.4921875 103.6484375 C7.96976538 105.20911143 6.42867594 106.75185081 4.8671875 108.2734375 C4.20332031 108.96953125 3.53945312 109.665625 2.85546875 110.3828125 C-9.07615803 122.1098971 -27.59303114 128.64633678 -44.1328125 129.2734375 C-45.28910156 129.325 -46.44539063 129.3765625 -47.63671875 129.4296875 C-70.49906073 129.96604743 -92.76775577 123.92891324 -109.75 107.84765625 C-117.21201005 99.78623883 -122.65795871 90.71162574 -126.1328125 80.2734375 C-126.45121094 79.32726563 -126.76960938 78.38109375 -127.09765625 77.40625 C-132.62180299 57.80443898 -129.53711793 37.33479837 -120.109375 19.5625 C-109.5333207 1.96361122 -92.82381923 -8.89488464 -73.25390625 -14.03515625 C-48.00413304 -19.62866045 -20.93143711 -15.40430946 0 0 Z " fill="#671214" transform="translate(3041.1328125,1227.7265625)"/>
<path d="M0 0 C6.39980017 2.61697255 9.33706039 7.91202951 12 14 C12.433125 14.96808594 12.86625 15.93617188 13.3125 16.93359375 C25.83186145 49.16349748 24.7248705 101.27297362 11.83203125 133.21728516 C9.22227305 138.80896777 5.46359432 143.98881449 0 147 C-4.49897216 147.86464621 -8.42772166 147.53600398 -12.75 146.0625 C-26.10449764 133.82087716 -28.08250575 113.25687547 -28.91329956 96.20874023 C-29.20537299 88.76801292 -29.19669448 81.32031893 -29.1875 73.875 C-29.18689575 72.97058167 -29.1862915 72.06616333 -29.18566895 71.13433838 C-29.08891423 17.80007031 -29.08891423 17.80007031 -14.3125 2.875 C-9.76710515 -0.74416344 -5.61254228 -1.27474408 0 0 Z " fill="#681315" transform="translate(3381,2570)"/>
<path d="M0 0 C9.41044993 1.17630624 16.66598951 3.69790931 23 11 C38.67139674 33.57641829 41.22643128 63.02618922 36.8125 89.625 C34.53712829 101.8756124 31.25367991 113.71036979 24 124 C23.401875 124.9075 22.80375 125.815 22.1875 126.75 C17.08497815 131.99830818 11.18404159 135.59136439 4 137 C2.68 137 1.36 137 0 137 C0 91.79 0 46.58 0 0 Z " fill="#6A1718" transform="translate(3721,2575)"/>
<path d="M0 0 C9.12459591 0 18.91344643 1.77766028 26 8 C32.91439046 15.80170933 34.36121999 22.56705998 34.375 32.8125 C34.39949219 33.75931641 34.42398438 34.70613281 34.44921875 35.68164062 C34.4852464 44.40633546 31.94934974 51.9429136 25.9453125 58.4296875 C18.10914878 64.75526544 9.89396405 65.175503 0 66 C0 44.22 0 22.44 0 0 Z " fill="#6A1719" transform="translate(2540,2575)"/>
<path d="M0 0 C9.12459591 0 18.91344643 1.77766028 26 8 C32.91439046 15.80170933 34.36121999 22.56705998 34.375 32.8125 C34.39949219 33.75931641 34.42398437 34.70613281 34.44921875 35.68164062 C34.4852464 44.40633546 31.94934974 51.9429136 25.9453125 58.4296875 C18.10914878 64.75526544 9.89396405 65.175503 0 66 C0 44.22 0 22.44 0 0 Z " fill="#6A1719" transform="translate(1386,2575)"/>
<path d="M0 0 C9.12459591 0 18.91344643 1.77766028 26 8 C32.91439046 15.80170933 34.36121999 22.56705998 34.375 32.8125 C34.39949219 33.75931641 34.42398438 34.70613281 34.44921875 35.68164062 C34.4852464 44.40633546 31.94934974 51.9429136 25.9453125 58.4296875 C18.10914878 64.75526544 9.89396405 65.175503 0 66 C0 44.22 0 22.44 0 0 Z " fill="#6A1719" transform="translate(881,2575)"/>
<path d="M0 0 C0.33 0 0.66 0 1 0 C3.21103999 12.69672961 4.79927907 25.4422734 6.25512695 38.24328613 C7.32425954 47.62407891 8.46041116 56.97364371 10.13671875 66.26953125 C10.97257281 71.04986517 11 74.98275596 11 80 C3.74 80 -3.52 80 -11 80 C-9.97548298 69.24257129 -8.69355289 58.61000494 -7 47.9375 C-5.47472856 38.32326618 -4.22899535 28.72927574 -3.22216797 19.04931641 C-2.84029528 15.52685556 -2.39598373 12.01320575 -1.9375 8.5 C-1.78152344 7.2934375 -1.62554688 6.086875 -1.46484375 4.84375 C-1 2 -1 2 0 0 Z " fill="#6B191A" transform="translate(1566,2582)"/>
<path d="M0 0 C0.33 0 0.66 0 1 0 C3.21103999 12.69672961 4.79927907 25.4422734 6.25512695 38.24328613 C7.32425954 47.62407891 8.46041116 56.97364371 10.13671875 66.26953125 C10.97257281 71.04986517 11 74.98275596 11 80 C3.74 80 -3.52 80 -11 80 C-9.97548298 69.24257129 -8.69355289 58.61000494 -7 47.9375 C-5.47472856 38.32326618 -4.22899535 28.72927574 -3.22216797 19.04931641 C-2.84029528 15.52685556 -2.39598373 12.01320575 -1.9375 8.5 C-1.78152344 7.2934375 -1.62554688 6.086875 -1.46484375 4.84375 C-1 2 -1 2 0 0 Z " fill="#6B191A" transform="translate(1061,2582)"/>
<path d="M0 0 C0.33 0 0.66 0 1 0 C1.33 2.97 1.66 5.94 2 9 C1.01 8.67 0.02 8.34 -1 8 C-1.125 2.25 -1.125 2.25 0 0 Z " fill="#8A4A44" transform="translate(1566,2582)"/>
<path d="M0 0 C0.33 0 0.66 0 1 0 C1.33 2.97 1.66 5.94 2 9 C1.01 8.67 0.02 8.34 -1 8 C-1.125 2.25 -1.125 2.25 0 0 Z " fill="#8A4A44" transform="translate(1061,2582)"/>
</svg>
