<?xml version="1.0" encoding="utf-8"?>
<!-- Generator: Adobe Illustrator 22.1.0, SVG Export Plug-In . SVG Version: 6.00 Build 0)  -->
<svg version="1.1" id="Layer_1" xmlns="http://www.w3.org/2000/svg" xmlns:xlink="http://www.w3.org/1999/xlink" x="0px" y="0px"
	 viewBox="0 0 180 27" style="enable-background:new 0 0 180 27;" xml:space="preserve">
<style type="text/css">
	.st0{fill:none;stroke:#000000;stroke-width:0.3;}
	.st1{fill:#9BB1C1;}
	.st2{fill:#F58347;}
	.st3{fill:none;stroke:#9BB1C1;stroke-width:4;stroke-miterlimit:10;}
</style>
<path class="st1" d="M73.7,24.6c-1,0.3-2.1,0.1-3.1,0.1c-0.3,0-0.3-0.3-0.3-0.6c0-1.3,0-2.5,0-3.8c0-5.3,0-10.6,0-15.9
	c0-0.4-0.2-0.9,0.4-1.1c0.6-0.2,0.9,0.3,1.1,0.7c2.7,4.1,5.3,8.2,7.8,12.4c0.2,0.4,0.5,0.8,0.8,1.3c0.5-0.9,1-1.7,1.5-2.5
	C84.4,11.5,86.7,7.8,89,4c0.3-0.4,0.6-0.7,1.1-0.6c0.5,0.1,0.4,0.6,0.4,0.9c0,6.5,0,13,0,19.5c0,0.7-0.2,1-0.9,0.9
	c-0.8-0.1-1.8,0.3-2.3-0.2c-0.5-0.5-0.1-1.5-0.1-2.2c0-3,0-6,0-9.1c-0.3,0.1-0.3,0.4-0.5,0.6c-1.8,2.9-3.5,5.7-5.3,8.6
	c-0.7,1.1-1.1,1.1-1.8,0c-0.5-0.8-1-1.6-1.5-2.4c-0.1-0.1-0.3-0.2-0.4-0.3c-0.4-0.6-0.7-1.1-1.1-1.7c-0.9-1.4-1.7-2.7-2.6-4.1
	c-0.3,3.3-0.2,6.5-0.2,9.8C73.8,24.1,73.9,24.4,73.7,24.6z"/>
<path class="st1" d="M127,21.4c0.1,0.9,0.1,1.7,0,2.6c-0.3,0.6-0.8,0.7-1.4,0.6c-0.1,0-0.2,0-0.3-0.1c-1.5-0.1-1.7-0.3-1.7-1.8
	c0-2-0.2-4,0-5.9c0.3-2.8,0.2-5.6,0.2-8.4c0-1.4-0.2-2.7-0.2-4.1c0-0.8,0.2-0.9,1-0.6c2.9,3.1,5.8,6.2,8.7,9.3
	c1.2,1.3,2.5,2.7,3.9,4.1c0-0.4,0-0.7,0-0.9c0-4,0-7.9,0-11.9c0-0.6,0.1-0.8,0.8-0.8c0.7,0.1,1.4,0,2.1,0c0.5,0,0.6,0.2,0.6,0.6
	c0,1.1,0,2.1,0,3.2c0,5.4,0,10.9,0,16.3c0,0.3,0.2,0.8-0.3,1c-0.5,0.2-0.8-0.2-1.1-0.5c-3.8-4-7.7-8-11.5-12
	c-0.2-0.2-0.4-0.4-0.6-0.6c-0.2,0.1-0.1,0.4-0.2,0.5c-0.2,0.2-0.2,0.4-0.2,0.7c0,2.6,0,5.2,0,7.9C126.9,20.9,126.8,21.2,127,21.4z"
	/>
<path class="st1" d="M106.7,20.3c0,0.3,0.3,0.6,0.1,1.1c-2.4-1.3-4.9-1.2-7.5-1.2c-0.5,0-0.8,0.2-0.9,0.6C98,22,97.5,23,97.1,24.1
	c-0.2,0.6-0.5,0.7-1.1,0.7c-0.6,0-1.3,0-1.9,0c-0.8,0-0.9-0.1-0.6-0.9c1.2-2.8,2.5-5.7,3.7-8.5c1.6-3.7,3.3-7.5,4.9-11.2
	c0.2-0.4,0.3-0.8,0.8-0.8c0.5,0,0.6,0.5,0.7,0.8c3,6.6,5.9,13.2,8.9,19.7c0.3,0.6,0.2,0.8-0.5,0.8c-0.8,0-1.5,0-2.3,0
	c-0.5,0-0.8-0.2-1-0.6c-0.6-1.4-1.2-2.8-1.8-4.2c-0.8-0.9-1.1-2.1-1.6-3.2c-0.8-1.8-1.6-3.5-2.3-5.3c-0.3,0.1-0.3,0.3-0.4,0.5
	c-0.6,1.4-1.1,2.7-1.7,4.1c-0.3,0.8-0.3,0.8,0.6,0.8c2,0.1,3.6,1,4.8,2.6C106.6,19.7,106.6,20,106.7,20.3z"/>
<path class="st1" d="M119.2,24.5c-0.1,0.3-0.4,0.3-0.7,0.3c-0.7,0-1.4,0-2.1,0c-0.5,0-0.7-0.2-0.7-0.7c0-3.6,0-7.2,0-10.9
	c0-3,0-6,0-8.9c0-0.5,0.1-0.7,0.7-0.7c0.9,0.1,1.8-0.2,2.7,0.2c0.1,0.2,0.1,0.4,0.1,0.5c0,6.5,0,13,0,19.6
	C119.3,24.1,119.3,24.3,119.2,24.5z"/>
<path class="st2" d="M67.6,4.3c0,0.9-0.5,1.8-1.3,2.6c-0.7,0.8-1.6,1.4-2.5,1.8c-0.2,0.1-0.5,0.2-0.6,0c-0.1-0.2-0.2-0.4,0-0.6
	c0.6-0.8,0.5-1.8,0.6-2.8c0.1-0.8,0.3-1.6,0.8-2.2c0.5-0.7,1.4-1,2.1-0.8C67.3,2.4,67.7,3.1,67.6,4.3z"/>
<path class="st1" d="M124.7,3.8c-0.6-0.2-0.9,0-0.8,0.7c0.1,0.6,0.3,1.4,0.2,1.9c-0.1,0.7,0.3,1.3,0.2,1.9c0,0.2,0,0.3,0,0.5
	c0.2,4.6-0.5,9.2-0.3,13.7c0,0.3,0,0.6,0.1,0.9c0.1,0.6,0.4,1,1.1,0.9c0.7,0,1.4,0.3,2-0.4c0.2,0.6,0,0.9-0.6,0.8
	c-0.9-0.1-1.8,0.2-2.7-0.2c-0.1-0.2-0.1-0.5-0.1-0.7c0-6.5,0-13.1,0-19.6c0-0.2-0.1-0.5,0.1-0.7C124.1,3.4,124.4,3.4,124.7,3.8z"/>
<path class="st1" d="M123.7,3.7c0,0.4,0,0.7,0,1.1c0,6.6,0,13.2,0,19.9c-0.3-0.2-0.2-0.5-0.2-0.8c0-6.4,0-12.9,0-19.3
	C123.5,4.2,123.4,3.9,123.7,3.7z"/>
<path class="st1" d="M127,21.4c-0.4-0.1-0.3-0.4-0.3-0.6c0-2.8,0-5.6,0-8.4c0-0.2-0.1-0.6,0.3-0.2C127.1,15.2,127.1,18.3,127,21.4z"
	/>
<path class="st2" d="M100.3,16.9l-1.5,3.4c0,0,0.2-0.2,0.6-0.2l1.4,0l1.2,0c0,0,0.6,0,0.7,0c0.3,0,0.6,0,0.8,0.1
	c0.3,0,0.6,0.1,0.9,0.1c0.1,0,0.3,0.1,0.6,0.1c0.2,0,0.3,0.1,0.5,0.1c0.2,0.1,0.4,0.1,0.6,0.2c0.3,0.1,0.6,0.3,0.9,0.4
	c0,0,0.1-0.2,0-0.5l0-0.1l-0.1-0.2l0-0.1l0-0.1l0-0.1l0,0c0,0-0.8-1.3-1.4-1.7c0,0-1.1-1-2.3-1.3C103,17.2,101.8,16.8,100.3,16.9z"
	/>
<path class="st3" d="M45.9,14.6c0-2.7,0-5.4,0-8.1c0-0.7,0.2-0.9,0.9-0.8c2.1,0.1,4.2-0.2,6.2,0.2c4.7,0.8,7.8,5.1,7.3,10
	c-0.4,4.4-4.3,7.7-9,7.7c-1.5,0-3,0-4.5,0c-0.7,0-0.9-0.2-0.9-0.8C46,20,45.9,17.3,45.9,14.6C45.9,14.6,45.9,14.6,45.9,14.6z"/>
</svg>
